<!-- Generated by IcoMoon.io -->
<svg version="1.1" xmlns="http://www.w3.org/2000/svg" width="32" height="32" viewBox="0 0 32 32">
<title>warning</title>
<path fill="#d60f0f" d="M17.694 2.635c-0.376-0.565-0.941-0.941-1.694-0.941-0.565 0-1.318 0.376-1.506 0.941l-14.118 24.847c-0.376 0.565-0.376 1.318 0 1.694 0.376 0.565 0.941 0.941 1.506 0.941h28.424c0.565 0 1.129-0.376 1.506-0.941s0.376-1.318 0-1.694l-14.118-24.847zM17.129 25.6c-0.376 0.376-0.753 0.376-1.129 0.376-0.941 0-1.506-0.753-1.506-1.506 0-0.941 0.753-1.506 1.506-1.506 0.941 0 1.506 0.753 1.506 1.506 0.188 0.565 0 0.941-0.376 1.129zM17.882 19.2c0 0.941-0.753 1.694-1.694 1.694s-1.694-0.753-1.694-1.694v-7.906c0-0.941 0.753-1.694 1.694-1.694s1.694 0.753 1.694 1.694v7.906z"></path>
</svg>
